<svg width="611" height="555" viewBox="0 0 611 555" fill="none" xmlns="http://www.w3.org/2000/svg">
<path d="M432.301 183.419H424.893V190.826H432.301V183.419Z" fill="black"/>
<path d="M439.708 183.419H432.301V190.826H439.708V183.419Z" fill="black"/>
<path d="M447.115 183.419H439.708V190.826H447.115V183.419Z" fill="black"/>
<path d="M454.522 183.419H447.115V190.826H454.522V183.419Z" fill="black"/>
<path d="M461.929 183.419H454.522V190.826H461.929V183.419Z" fill="black"/>
<path d="M469.337 183.419H461.929V190.826H469.337V183.419Z" fill="black"/>
<path d="M476.744 183.419H469.337V190.826H476.744V183.419Z" fill="black"/>
<path d="M491.558 183.419H484.151V190.826H491.558V183.419Z" fill="black"/>
<path d="M498.966 183.419H491.558V190.826H498.966V183.419Z" fill="black"/>
<path d="M506.373 183.419H498.966V190.826H506.373V183.419Z" fill="black"/>
<path d="M522.113 183.419H513.78V190.826H522.113V183.419Z" fill="black"/>
<path d="M529.52 183.419H522.113V190.826H529.52V183.419Z" fill="black"/>
<path d="M544.335 183.419H536.928V190.826H544.335V183.419Z" fill="black"/>
<path d="M551.742 183.419H544.335V190.826H551.742V183.419Z" fill="black"/>
<path d="M566.557 183.419H559.149V190.826H566.557V183.419Z" fill="black"/>
<path d="M573.964 183.419H566.557V190.826H573.964V183.419Z" fill="black"/>
<path d="M581.371 183.419H573.964V190.826H581.371V183.419Z" fill="black"/>
<path d="M588.778 183.419H581.371V190.826H588.778V183.419Z" fill="black"/>
<path d="M596.186 183.419H588.778V190.826H596.186V183.419Z" fill="black"/>
<path d="M603.593 183.419H596.186V190.826H603.593V183.419Z" fill="black"/>
<path d="M611 183.419H603.593V190.826H611V183.419Z" fill="black"/>
<path d="M432.301 190.826H424.893V198.234H432.301V190.826Z" fill="black"/>
<path d="M476.744 190.826H469.337V198.234H476.744V190.826Z" fill="black"/>
<path d="M491.558 190.826H484.151V198.234H491.558V190.826Z" fill="black"/>
<path d="M498.966 190.826H491.558V198.234H498.966V190.826Z" fill="black"/>
<path d="M506.373 190.826H498.966V198.234H506.373V190.826Z" fill="black"/>
<path d="M536.928 190.826H529.52V198.234H536.928V190.826Z" fill="black"/>
<path d="M551.742 190.826H544.335V198.234H551.742V190.826Z" fill="black"/>
<path d="M566.557 190.826H559.149V198.234H566.557V190.826Z" fill="black"/>
<path d="M611 190.826H603.593V198.234H611V190.826Z" fill="black"/>
<path d="M432.301 198.234H424.893V205.641H432.301V198.234Z" fill="black"/>
<path d="M447.115 198.234H439.708V205.641H447.115V198.234Z" fill="black"/>
<path d="M454.522 198.234H447.115V205.641H454.522V198.234Z" fill="black"/>
<path d="M461.929 198.234H454.522V205.641H461.929V198.234Z" fill="black"/>
<path d="M476.744 198.234H469.337V205.641H476.744V198.234Z" fill="black"/>
<path d="M491.558 198.234H484.151V205.641H491.558V198.234Z" fill="black"/>
<path d="M506.373 198.234H498.966V205.641H506.373V198.234Z" fill="black"/>
<path d="M513.78 198.234H506.373V205.641H513.78V198.234Z" fill="black"/>
<path d="M536.928 198.234H529.52V205.641H536.928V198.234Z" fill="black"/>
<path d="M551.742 198.234H544.335V205.641H551.742V198.234Z" fill="black"/>
<path d="M566.557 198.234H559.149V205.641H566.557V198.234Z" fill="black"/>
<path d="M581.371 198.234H573.964V205.641H581.371V198.234Z" fill="black"/>
<path d="M588.778 198.234H581.371V205.641H588.778V198.234Z" fill="black"/>
<path d="M596.186 198.234H588.778V205.641H596.186V198.234Z" fill="black"/>
<path d="M611 198.234H603.593V205.641H611V198.234Z" fill="black"/>
<path d="M432.301 205.641H424.893V213.048H432.301V205.641Z" fill="black"/>
<path d="M447.115 205.641H439.708V213.048H447.115V205.641Z" fill="black"/>
<path d="M454.522 205.641H447.115V213.048H454.522V205.641Z" fill="black"/>
<path d="M461.929 205.641H454.522V213.048H461.929V205.641Z" fill="black"/>
<path d="M476.744 205.641H469.337V213.048H476.744V205.641Z" fill="black"/>
<path d="M491.558 205.641H484.151V213.048H491.558V205.641Z" fill="black"/>
<path d="M498.966 205.641H491.558V213.048H498.966V205.641Z" fill="black"/>
<path d="M513.78 205.641H506.373V213.048H513.78V205.641Z" fill="black"/>
<path d="M529.52 205.641H522.113V213.048H529.52V205.641Z" fill="black"/>
<path d="M544.335 205.641H536.928V213.048H544.335V205.641Z" fill="black"/>
<path d="M566.557 205.641H559.149V213.048H566.557V205.641Z" fill="black"/>
<path d="M581.371 205.641H573.964V213.048H581.371V205.641Z" fill="black"/>
<path d="M588.778 205.641H581.371V213.048H588.778V205.641Z" fill="black"/>
<path d="M596.186 205.641H588.778V213.048H596.186V205.641Z" fill="black"/>
<path d="M611 205.641H603.593V213.048H611V205.641Z" fill="black"/>
<path d="M432.301 213.048H424.893V220.455H432.301V213.048Z" fill="black"/>
<path d="M447.115 213.048H439.708V220.455H447.115V213.048Z" fill="black"/>
<path d="M454.522 213.048H447.115V220.455H454.522V213.048Z" fill="black"/>
<path d="M461.929 213.048H454.522V220.455H461.929V213.048Z" fill="black"/>
<path d="M476.744 213.048H469.337V220.455H476.744V213.048Z" fill="black"/>
<path d="M536.928 213.048H529.52V220.455H536.928V213.048Z" fill="black"/>
<path d="M544.335 213.048H536.928V220.455H544.335V213.048Z" fill="black"/>
<path d="M551.742 213.048H544.335V220.455H551.742V213.048Z" fill="black"/>
<path d="M566.557 213.048H559.149V220.455H566.557V213.048Z" fill="black"/>
<path d="M581.371 213.048H573.964V220.455H581.371V213.048Z" fill="black"/>
<path d="M588.778 213.048H581.371V220.455H588.778V213.048Z" fill="black"/>
<path d="M596.186 213.048H588.778V220.455H596.186V213.048Z" fill="black"/>
<path d="M611 213.048H603.593V220.455H611V213.048Z" fill="black"/>
<path d="M432.301 220.455H424.893V227.863H432.301V220.455Z" fill="black"/>
<path d="M476.744 220.455H469.337V227.863H476.744V220.455Z" fill="black"/>
<path d="M491.558 220.455H484.151V227.863H491.558V220.455Z" fill="black"/>
<path d="M513.78 220.455H506.373V227.863H513.78V220.455Z" fill="black"/>
<path d="M522.113 220.455H513.78V227.863H522.113V220.455Z" fill="black"/>
<path d="M551.742 220.455H544.335V227.863H551.742V220.455Z" fill="black"/>
<path d="M566.557 220.455H559.149V227.863H566.557V220.455Z" fill="black"/>
<path d="M611 220.455H603.593V227.863H611V220.455Z" fill="black"/>
<path d="M432.301 227.863H424.893V235.27H432.301V227.863Z" fill="black"/>
<path d="M439.708 227.863H432.301V235.27H439.708V227.863Z" fill="black"/>
<path d="M447.115 227.863H439.708V235.27H447.115V227.863Z" fill="black"/>
<path d="M454.522 227.863H447.115V235.27H454.522V227.863Z" fill="black"/>
<path d="M461.929 227.863H454.522V235.27H461.929V227.863Z" fill="black"/>
<path d="M469.337 227.863H461.929V235.27H469.337V227.863Z" fill="black"/>
<path d="M476.744 227.863H469.337V235.27H476.744V227.863Z" fill="black"/>
<path d="M491.558 227.863H484.151V235.27H491.558V227.863Z" fill="black"/>
<path d="M506.373 227.863H498.966V235.27H506.373V227.863Z" fill="black"/>
<path d="M522.113 227.863H513.78V235.27H522.113V227.863Z" fill="black"/>
<path d="M536.928 227.863H529.52V235.27H536.928V227.863Z" fill="black"/>
<path d="M551.742 227.863H544.335V235.27H551.742V227.863Z" fill="black"/>
<path d="M566.557 227.863H559.149V235.27H566.557V227.863Z" fill="black"/>
<path d="M573.964 227.863H566.557V235.27H573.964V227.863Z" fill="black"/>
<path d="M581.371 227.863H573.964V235.27H581.371V227.863Z" fill="black"/>
<path d="M588.778 227.863H581.371V235.27H588.778V227.863Z" fill="black"/>
<path d="M596.186 227.863H588.778V235.27H596.186V227.863Z" fill="black"/>
<path d="M603.593 227.863H596.186V235.27H603.593V227.863Z" fill="black"/>
<path d="M611 227.863H603.593V235.27H611V227.863Z" fill="black"/>
<path d="M498.966 235.27H491.558V242.677H498.966V235.27Z" fill="black"/>
<path d="M522.113 235.27H513.78V242.677H522.113V235.27Z" fill="black"/>
<path d="M544.335 235.27H536.928V242.677H544.335V235.27Z" fill="black"/>
<path d="M432.301 242.677H424.893V250.084H432.301V242.677Z" fill="black"/>
<path d="M439.708 242.677H432.301V250.084H439.708V242.677Z" fill="black"/>
<path d="M461.929 242.677H454.522V250.084H461.929V242.677Z" fill="black"/>
<path d="M469.337 242.677H461.929V250.084H469.337V242.677Z" fill="black"/>
<path d="M476.744 242.677H469.337V250.084H476.744V242.677Z" fill="black"/>
<path d="M513.78 242.677H506.373V250.084H513.78V242.677Z" fill="black"/>
<path d="M573.964 242.677H566.557V250.084H573.964V242.677Z" fill="black"/>
<path d="M588.778 242.677H581.371V250.084H588.778V242.677Z" fill="black"/>
<path d="M596.186 242.677H588.778V250.084H596.186V242.677Z" fill="black"/>
<path d="M603.593 242.677H596.186V250.084H603.593V242.677Z" fill="black"/>
<path d="M611 242.677H603.593V250.084H611V242.677Z" fill="black"/>
<path d="M432.301 250.084H424.893V257.491H432.301V250.084Z" fill="black"/>
<path d="M447.115 250.084H439.708V257.491H447.115V250.084Z" fill="black"/>
<path d="M454.522 250.084H447.115V257.491H454.522V250.084Z" fill="black"/>
<path d="M469.337 250.084H461.929V257.491H469.337V250.084Z" fill="black"/>
<path d="M484.151 250.084H476.744V257.491H484.151V250.084Z" fill="black"/>
<path d="M498.966 250.084H491.558V257.491H498.966V250.084Z" fill="black"/>
<path d="M506.373 250.084H498.966V257.491H506.373V250.084Z" fill="black"/>
<path d="M522.113 250.084H513.78V257.491H522.113V250.084Z" fill="black"/>
<path d="M529.52 250.084H522.113V257.491H529.52V250.084Z" fill="black"/>
<path d="M536.928 250.084H529.52V257.491H536.928V250.084Z" fill="black"/>
<path d="M544.335 250.084H536.928V257.491H544.335V250.084Z" fill="black"/>
<path d="M551.742 250.084H544.335V257.491H551.742V250.084Z" fill="black"/>
<path d="M581.371 250.084H573.964V257.491H581.371V250.084Z" fill="black"/>
<path d="M588.778 250.084H581.371V257.491H588.778V250.084Z" fill="black"/>
<path d="M603.593 250.084H596.186V257.491H603.593V250.084Z" fill="black"/>
<path d="M439.708 257.491H432.301V264.899H439.708V257.491Z" fill="black"/>
<path d="M461.929 257.491H454.522V264.899H461.929V257.491Z" fill="black"/>
<path d="M476.744 257.491H469.337V264.899H476.744V257.491Z" fill="black"/>
<path d="M491.558 257.491H484.151V264.899H491.558V257.491Z" fill="black"/>
<path d="M513.78 257.491H506.373V264.899H513.78V257.491Z" fill="black"/>
<path d="M522.113 257.491H513.78V264.899H522.113V257.491Z" fill="black"/>
<path d="M529.52 257.491H522.113V264.899H529.52V257.491Z" fill="black"/>
<path d="M544.335 257.491H536.928V264.899H544.335V257.491Z" fill="black"/>
<path d="M551.742 257.491H544.335V264.899H551.742V257.491Z" fill="black"/>
<path d="M559.149 257.491H551.742V264.899H559.149V257.491Z" fill="black"/>
<path d="M566.557 257.491H559.149V264.899H566.557V257.491Z" fill="black"/>
<path d="M573.964 257.491H566.557V264.899H573.964V257.491Z" fill="black"/>
<path d="M581.371 257.491H573.964V264.899H581.371V257.491Z" fill="black"/>
<path d="M588.778 257.491H581.371V264.899H588.778V257.491Z" fill="black"/>
<path d="M596.186 257.491H588.778V264.899H596.186V257.491Z" fill="black"/>
<path d="M432.301 264.899H424.893V272.306H432.301V264.899Z" fill="black"/>
<path d="M454.522 264.899H447.115V272.306H454.522V264.899Z" fill="black"/>
<path d="M461.929 264.899H454.522V272.306H461.929V264.899Z" fill="black"/>
<path d="M506.373 264.899H498.966V272.306H506.373V264.899Z" fill="black"/>
<path d="M513.78 264.899H506.373V272.306H513.78V264.899Z" fill="black"/>
<path d="M536.928 264.899H529.52V272.306H536.928V264.899Z" fill="black"/>
<path d="M551.742 264.899H544.335V272.306H551.742V264.899Z" fill="black"/>
<path d="M596.186 264.899H588.778V272.306H596.186V264.899Z" fill="black"/>
<path d="M603.593 264.899H596.186V272.306H603.593V264.899Z" fill="black"/>
<path d="M439.708 272.306H432.301V280.639H439.708V272.306Z" fill="black"/>
<path d="M447.115 272.306H439.708V280.639H447.115V272.306Z" fill="black"/>
<path d="M476.744 272.306H469.337V280.639H476.744V272.306Z" fill="black"/>
<path d="M484.151 272.306H476.744V280.639H484.151V272.306Z" fill="black"/>
<path d="M506.373 272.306H498.966V280.639H506.373V272.306Z" fill="black"/>
<path d="M522.113 272.306H513.78V280.639H522.113V272.306Z" fill="black"/>
<path d="M551.742 272.306H544.335V280.639H551.742V272.306Z" fill="black"/>
<path d="M559.149 272.306H551.742V280.639H559.149V272.306Z" fill="black"/>
<path d="M566.557 272.306H559.149V280.639H566.557V272.306Z" fill="black"/>
<path d="M588.778 272.306H581.371V280.639H588.778V272.306Z" fill="black"/>
<path d="M596.186 272.306H588.778V280.639H596.186V272.306Z" fill="black"/>
<path d="M603.593 272.306H596.186V280.639H603.593V272.306Z" fill="black"/>
<path d="M611 272.306H603.593V280.639H611V272.306Z" fill="black"/>
<path d="M432.301 280.639H424.893V288.046H432.301V280.639Z" fill="black"/>
<path d="M439.708 280.639H432.301V288.046H439.708V280.639Z" fill="black"/>
<path d="M454.522 280.639H447.115V288.046H454.522V280.639Z" fill="black"/>
<path d="M469.337 280.639H461.929V288.046H469.337V280.639Z" fill="black"/>
<path d="M491.558 280.639H484.151V288.046H491.558V280.639Z" fill="black"/>
<path d="M498.966 280.639H491.558V288.046H498.966V280.639Z" fill="black"/>
<path d="M536.928 280.639H529.52V288.046H536.928V280.639Z" fill="black"/>
<path d="M544.335 280.639H536.928V288.046H544.335V280.639Z" fill="black"/>
<path d="M551.742 280.639H544.335V288.046H551.742V280.639Z" fill="black"/>
<path d="M559.149 280.639H551.742V288.046H559.149V280.639Z" fill="black"/>
<path d="M581.371 280.639H573.964V288.046H581.371V280.639Z" fill="black"/>
<path d="M603.593 280.639H596.186V288.046H603.593V280.639Z" fill="black"/>
<path d="M447.115 288.046H439.708V295.453H447.115V288.046Z" fill="black"/>
<path d="M476.744 288.046H469.337V295.453H476.744V288.046Z" fill="black"/>
<path d="M484.151 288.046H476.744V295.453H484.151V288.046Z" fill="black"/>
<path d="M498.966 288.046H491.558V295.453H498.966V288.046Z" fill="black"/>
<path d="M506.373 288.046H498.966V295.453H506.373V288.046Z" fill="black"/>
<path d="M529.52 288.046H522.113V295.453H529.52V288.046Z" fill="black"/>
<path d="M536.928 288.046H529.52V295.453H536.928V288.046Z" fill="black"/>
<path d="M544.335 288.046H536.928V295.453H544.335V288.046Z" fill="black"/>
<path d="M551.742 288.046H544.335V295.453H551.742V288.046Z" fill="black"/>
<path d="M559.149 288.046H551.742V295.453H559.149V288.046Z" fill="black"/>
<path d="M566.557 288.046H559.149V295.453H566.557V288.046Z" fill="black"/>
<path d="M573.964 288.046H566.557V295.453H573.964V288.046Z" fill="black"/>
<path d="M581.371 288.046H573.964V295.453H581.371V288.046Z" fill="black"/>
<path d="M588.778 288.046H581.371V295.453H588.778V288.046Z" fill="black"/>
<path d="M596.186 288.046H588.778V295.453H596.186V288.046Z" fill="black"/>
<path d="M447.115 295.453H439.708V302.861H447.115V295.453Z" fill="black"/>
<path d="M454.522 295.453H447.115V302.861H454.522V295.453Z" fill="black"/>
<path d="M461.929 295.453H454.522V302.861H461.929V295.453Z" fill="black"/>
<path d="M484.151 295.453H476.744V302.861H484.151V295.453Z" fill="black"/>
<path d="M522.113 295.453H513.78V302.861H522.113V295.453Z" fill="black"/>
<path d="M536.928 295.453H529.52V302.861H536.928V295.453Z" fill="black"/>
<path d="M544.335 295.453H536.928V302.861H544.335V295.453Z" fill="black"/>
<path d="M551.742 295.453H544.335V302.861H551.742V295.453Z" fill="black"/>
<path d="M559.149 295.453H551.742V302.861H559.149V295.453Z" fill="black"/>
<path d="M573.964 295.453H566.557V302.861H573.964V295.453Z" fill="black"/>
<path d="M581.371 295.453H573.964V302.861H581.371V295.453Z" fill="black"/>
<path d="M596.186 295.453H588.778V302.861H596.186V295.453Z" fill="black"/>
<path d="M603.593 295.453H596.186V302.861H603.593V295.453Z" fill="black"/>
<path d="M432.301 302.861H424.893V310.268H432.301V302.861Z" fill="black"/>
<path d="M439.708 302.861H432.301V310.268H439.708V302.861Z" fill="black"/>
<path d="M454.522 302.861H447.115V310.268H454.522V302.861Z" fill="black"/>
<path d="M469.337 302.861H461.929V310.268H469.337V302.861Z" fill="black"/>
<path d="M476.744 302.861H469.337V310.268H476.744V302.861Z" fill="black"/>
<path d="M484.151 302.861H476.744V310.268H484.151V302.861Z" fill="black"/>
<path d="M491.558 302.861H484.151V310.268H491.558V302.861Z" fill="black"/>
<path d="M498.966 302.861H491.558V310.268H498.966V302.861Z" fill="black"/>
<path d="M513.78 302.861H506.373V310.268H513.78V302.861Z" fill="black"/>
<path d="M551.742 302.861H544.335V310.268H551.742V302.861Z" fill="black"/>
<path d="M559.149 302.861H551.742V310.268H559.149V302.861Z" fill="black"/>
<path d="M566.557 302.861H559.149V310.268H566.557V302.861Z" fill="black"/>
<path d="M573.964 302.861H566.557V310.268H573.964V302.861Z" fill="black"/>
<path d="M581.371 302.861H573.964V310.268H581.371V302.861Z" fill="black"/>
<path d="M588.778 302.861H581.371V310.268H588.778V302.861Z" fill="black"/>
<path d="M596.186 302.861H588.778V310.268H596.186V302.861Z" fill="black"/>
<path d="M491.558 310.268H484.151V317.675H491.558V310.268Z" fill="black"/>
<path d="M506.373 310.268H498.966V317.675H506.373V310.268Z" fill="black"/>
<path d="M522.113 310.268H513.78V317.675H522.113V310.268Z" fill="black"/>
<path d="M536.928 310.268H529.52V317.675H536.928V310.268Z" fill="black"/>
<path d="M544.335 310.268H536.928V317.675H544.335V310.268Z" fill="black"/>
<path d="M551.742 310.268H544.335V317.675H551.742V310.268Z" fill="black"/>
<path d="M581.371 310.268H573.964V317.675H581.371V310.268Z" fill="black"/>
<path d="M432.301 317.675H424.893V325.082H432.301V317.675Z" fill="black"/>
<path d="M439.708 317.675H432.301V325.082H439.708V317.675Z" fill="black"/>
<path d="M447.115 317.675H439.708V325.082H447.115V317.675Z" fill="black"/>
<path d="M454.522 317.675H447.115V325.082H454.522V317.675Z" fill="black"/>
<path d="M461.929 317.675H454.522V325.082H461.929V317.675Z" fill="black"/>
<path d="M469.337 317.675H461.929V325.082H469.337V317.675Z" fill="black"/>
<path d="M476.744 317.675H469.337V325.082H476.744V317.675Z" fill="black"/>
<path d="M513.78 317.675H506.373V325.082H513.78V317.675Z" fill="black"/>
<path d="M522.113 317.675H513.78V325.082H522.113V317.675Z" fill="black"/>
<path d="M536.928 317.675H529.52V325.082H536.928V317.675Z" fill="black"/>
<path d="M551.742 317.675H544.335V325.082H551.742V317.675Z" fill="black"/>
<path d="M566.557 317.675H559.149V325.082H566.557V317.675Z" fill="black"/>
<path d="M581.371 317.675H573.964V325.082H581.371V317.675Z" fill="black"/>
<path d="M432.301 325.082H424.893V332.49H432.301V325.082Z" fill="black"/>
<path d="M476.744 325.082H469.337V332.49H476.744V325.082Z" fill="black"/>
<path d="M491.558 325.082H484.151V332.49H491.558V325.082Z" fill="black"/>
<path d="M506.373 325.082H498.966V332.49H506.373V325.082Z" fill="black"/>
<path d="M513.78 325.082H506.373V332.49H513.78V325.082Z" fill="black"/>
<path d="M536.928 325.082H529.52V332.49H536.928V325.082Z" fill="black"/>
<path d="M551.742 325.082H544.335V332.49H551.742V325.082Z" fill="black"/>
<path d="M581.371 325.082H573.964V332.49H581.371V325.082Z" fill="black"/>
<path d="M588.778 325.082H581.371V332.49H588.778V325.082Z" fill="black"/>
<path d="M596.186 325.082H588.778V332.49H596.186V325.082Z" fill="black"/>
<path d="M611 325.082H603.593V332.49H611V325.082Z" fill="black"/>
<path d="M432.301 332.49H424.893V339.897H432.301V332.49Z" fill="black"/>
<path d="M447.115 332.49H439.708V339.897H447.115V332.49Z" fill="black"/>
<path d="M454.522 332.49H447.115V339.897H454.522V332.49Z" fill="black"/>
<path d="M461.929 332.49H454.522V339.897H461.929V332.49Z" fill="black"/>
<path d="M476.744 332.49H469.337V339.897H476.744V332.49Z" fill="black"/>
<path d="M491.558 332.49H484.151V339.897H491.558V332.49Z" fill="black"/>
<path d="M522.113 332.49H513.78V339.897H522.113V332.49Z" fill="black"/>
<path d="M536.928 332.49H529.52V339.897H536.928V332.49Z" fill="black"/>
<path d="M551.742 332.49H544.335V339.897H551.742V332.49Z" fill="black"/>
<path d="M559.149 332.49H551.742V339.897H559.149V332.49Z" fill="black"/>
<path d="M566.557 332.49H559.149V339.897H566.557V332.49Z" fill="black"/>
<path d="M573.964 332.49H566.557V339.897H573.964V332.49Z" fill="black"/>
<path d="M581.371 332.49H573.964V339.897H581.371V332.49Z" fill="black"/>
<path d="M588.778 332.49H581.371V339.897H588.778V332.49Z" fill="black"/>
<path d="M596.186 332.49H588.778V339.897H596.186V332.49Z" fill="black"/>
<path d="M603.593 332.49H596.186V339.897H603.593V332.49Z" fill="black"/>
<path d="M611 332.49H603.593V339.897H611V332.49Z" fill="black"/>
<path d="M432.301 339.897H424.893V347.304H432.301V339.897Z" fill="black"/>
<path d="M447.115 339.897H439.708V347.304H447.115V339.897Z" fill="black"/>
<path d="M454.522 339.897H447.115V347.304H454.522V339.897Z" fill="black"/>
<path d="M461.929 339.897H454.522V347.304H461.929V339.897Z" fill="black"/>
<path d="M476.744 339.897H469.337V347.304H476.744V339.897Z" fill="black"/>
<path d="M536.928 339.897H529.52V347.304H536.928V339.897Z" fill="black"/>
<path d="M544.335 339.897H536.928V347.304H544.335V339.897Z" fill="black"/>
<path d="M559.149 339.897H551.742V347.304H559.149V339.897Z" fill="black"/>
<path d="M566.557 339.897H559.149V347.304H566.557V339.897Z" fill="black"/>
<path d="M573.964 339.897H566.557V347.304H573.964V339.897Z" fill="black"/>
<path d="M596.186 339.897H588.778V347.304H596.186V339.897Z" fill="black"/>
<path d="M603.593 339.897H596.186V347.304H603.593V339.897Z" fill="black"/>
<path d="M611 339.897H603.593V347.304H611V339.897Z" fill="black"/>
<path d="M432.301 347.304H424.893V354.711H432.301V347.304Z" fill="black"/>
<path d="M447.115 347.304H439.708V354.711H447.115V347.304Z" fill="black"/>
<path d="M454.522 347.304H447.115V354.711H454.522V347.304Z" fill="black"/>
<path d="M461.929 347.304H454.522V354.711H461.929V347.304Z" fill="black"/>
<path d="M476.744 347.304H469.337V354.711H476.744V347.304Z" fill="black"/>
<path d="M498.966 347.304H491.558V354.711H498.966V347.304Z" fill="black"/>
<path d="M506.373 347.304H498.966V354.711H506.373V347.304Z" fill="black"/>
<path d="M529.52 347.304H522.113V354.711H529.52V347.304Z" fill="black"/>
<path d="M536.928 347.304H529.52V354.711H536.928V347.304Z" fill="black"/>
<path d="M559.149 347.304H551.742V354.711H559.149V347.304Z" fill="black"/>
<path d="M566.557 347.304H559.149V354.711H566.557V347.304Z" fill="black"/>
<path d="M588.778 347.304H581.371V354.711H588.778V347.304Z" fill="black"/>
<path d="M603.593 347.304H596.186V354.711H603.593V347.304Z" fill="black"/>
<path d="M432.301 354.711H424.893V362.119H432.301V354.711Z" fill="black"/>
<path d="M476.744 354.711H469.337V362.119H476.744V354.711Z" fill="black"/>
<path d="M491.558 354.711H484.151V362.119H491.558V354.711Z" fill="black"/>
<path d="M498.966 354.711H491.558V362.119H498.966V354.711Z" fill="black"/>
<path d="M522.113 354.711H513.78V362.119H522.113V354.711Z" fill="black"/>
<path d="M536.928 354.711H529.52V362.119H536.928V354.711Z" fill="black"/>
<path d="M544.335 354.711H536.928V362.119H544.335V354.711Z" fill="black"/>
<path d="M573.964 354.711H566.557V362.119H573.964V354.711Z" fill="black"/>
<path d="M581.371 354.711H573.964V362.119H581.371V354.711Z" fill="black"/>
<path d="M588.778 354.711H581.371V362.119H588.778V354.711Z" fill="black"/>
<path d="M596.186 354.711H588.778V362.119H596.186V354.711Z" fill="black"/>
<path d="M603.593 354.711H596.186V362.119H603.593V354.711Z" fill="black"/>
<path d="M432.301 362.119H424.893V369.526H432.301V362.119Z" fill="black"/>
<path d="M439.708 362.119H432.301V369.526H439.708V362.119Z" fill="black"/>
<path d="M447.115 362.119H439.708V369.526H447.115V362.119Z" fill="black"/>
<path d="M454.522 362.119H447.115V369.526H454.522V362.119Z" fill="black"/>
<path d="M461.929 362.119H454.522V369.526H461.929V362.119Z" fill="black"/>
<path d="M469.337 362.119H461.929V369.526H469.337V362.119Z" fill="black"/>
<path d="M476.744 362.119H469.337V369.526H476.744V362.119Z" fill="black"/>
<path d="M491.558 362.119H484.151V369.526H491.558V362.119Z" fill="black"/>
<path d="M498.966 362.119H491.558V369.526H498.966V362.119Z" fill="black"/>
<path d="M506.373 362.119H498.966V369.526H506.373V362.119Z" fill="black"/>
<path d="M513.78 362.119H506.373V369.526H513.78V362.119Z" fill="black"/>
<path d="M522.113 362.119H513.78V369.526H522.113V362.119Z" fill="black"/>
<path d="M529.52 362.119H522.113V369.526H529.52V362.119Z" fill="black"/>
<path d="M536.928 362.119H529.52V369.526H536.928V362.119Z" fill="black"/>
<path d="M544.335 362.119H536.928V369.526H544.335V362.119Z" fill="black"/>
<path d="M559.149 362.119H551.742V369.526H559.149V362.119Z" fill="black"/>
<path d="M566.557 362.119H559.149V369.526H566.557V362.119Z" fill="black"/>
<path d="M596.186 362.119H588.778V369.526H596.186V362.119Z" fill="black"/>
<path d="M603.593 362.119H596.186V369.526H603.593V362.119Z" fill="black"/>
<path d="M611 362.119H603.593V369.526H611V362.119Z" fill="black"/>
<path d="M88.6094 222.194H84.2735V226.53H88.6094V222.194Z" fill="black"/>
<path d="M92.9454 222.194H88.6094V226.53H92.9454V222.194Z" fill="black"/>
<path d="M97.2813 222.194H92.9454V226.53H97.2813V222.194Z" fill="black"/>
<path d="M101.617 222.194H97.2813V226.53H101.617V222.194Z" fill="black"/>
<path d="M105.953 222.194H101.617V226.53H105.953V222.194Z" fill="black"/>
<path d="M110.289 222.194H105.953V226.53H110.289V222.194Z" fill="black"/>
<path d="M114.625 222.194H110.289V226.53H114.625V222.194Z" fill="black"/>
<path d="M123.297 222.194H118.961V226.53H123.297V222.194Z" fill="black"/>
<path d="M127.633 222.194H123.297V226.53H127.633V222.194Z" fill="black"/>
<path d="M131.969 222.194H127.633V226.53H131.969V222.194Z" fill="black"/>
<path d="M141.183 222.194H136.305V226.53H141.183V222.194Z" fill="black"/>
<path d="M145.519 222.194H141.183V226.53H145.519V222.194Z" fill="black"/>
<path d="M154.191 222.194H149.855V226.53H154.191V222.194Z" fill="black"/>
<path d="M158.526 222.194H154.191V226.53H158.526V222.194Z" fill="black"/>
<path d="M167.198 222.194H162.862V226.53H167.198V222.194Z" fill="black"/>
<path d="M171.534 222.194H167.198V226.53H171.534V222.194Z" fill="black"/>
<path d="M175.87 222.194H171.534V226.53H175.87V222.194Z" fill="black"/>
<path d="M180.206 222.194H175.87V226.53H180.206V222.194Z" fill="black"/>
<path d="M184.542 222.194H180.206V226.53H184.542V222.194Z" fill="black"/>
<path d="M188.878 222.194H184.542V226.53H188.878V222.194Z" fill="black"/>
<path d="M193.214 222.194H188.878V226.53H193.214V222.194Z" fill="black"/>
<path d="M88.6094 226.53H84.2735V230.866H88.6094V226.53Z" fill="black"/>
<path d="M114.625 226.53H110.289V230.866H114.625V226.53Z" fill="black"/>
<path d="M123.297 226.53H118.961V230.866H123.297V226.53Z" fill="black"/>
<path d="M127.633 226.53H123.297V230.866H127.633V226.53Z" fill="black"/>
<path d="M131.969 226.53H127.633V230.866H131.969V226.53Z" fill="black"/>
<path d="M149.855 226.53H145.519V230.866H149.855V226.53Z" fill="black"/>
<path d="M158.526 226.53H154.191V230.866H158.526V226.53Z" fill="black"/>
<path d="M167.198 226.53H162.862V230.866H167.198V226.53Z" fill="black"/>
<path d="M193.214 226.53H188.878V230.866H193.214V226.53Z" fill="black"/>
<path d="M88.6094 230.866H84.2735V235.202H88.6094V230.866Z" fill="black"/>
<path d="M97.2813 230.866H92.9454V235.202H97.2813V230.866Z" fill="black"/>
<path d="M101.617 230.866H97.2813V235.202H101.617V230.866Z" fill="black"/>
<path d="M105.953 230.866H101.617V235.202H105.953V230.866Z" fill="black"/>
<path d="M114.625 230.866H110.289V235.202H114.625V230.866Z" fill="black"/>
<path d="M123.297 230.866H118.961V235.202H123.297V230.866Z" fill="black"/>
<path d="M131.969 230.866H127.633V235.202H131.969V230.866Z" fill="black"/>
<path d="M136.305 230.866H131.969V235.202H136.305V230.866Z" fill="black"/>
<path d="M149.855 230.866H145.519V235.202H149.855V230.866Z" fill="black"/>
<path d="M158.526 230.866H154.191V235.202H158.526V230.866Z" fill="black"/>
<path d="M167.198 230.866H162.862V235.202H167.198V230.866Z" fill="black"/>
<path d="M175.87 230.866H171.534V235.202H175.87V230.866Z" fill="black"/>
<path d="M180.206 230.866H175.87V235.202H180.206V230.866Z" fill="black"/>
<path d="M184.542 230.866H180.206V235.202H184.542V230.866Z" fill="black"/>
<path d="M193.214 230.866H188.878V235.202H193.214V230.866Z" fill="black"/>
<path d="M88.6094 235.202H84.2735V239.538H88.6094V235.202Z" fill="black"/>
<path d="M97.2813 235.202H92.9454V239.538H97.2813V235.202Z" fill="black"/>
<path d="M101.617 235.202H97.2813V239.538H101.617V235.202Z" fill="black"/>
<path d="M105.953 235.202H101.617V239.538H105.953V235.202Z" fill="black"/>
<path d="M114.625 235.202H110.289V239.538H114.625V235.202Z" fill="black"/>
<path d="M123.297 235.202H118.961V239.538H123.297V235.202Z" fill="black"/>
<path d="M127.633 235.202H123.297V239.538H127.633V235.202Z" fill="black"/>
<path d="M136.305 235.202H131.969V239.538H136.305V235.202Z" fill="black"/>
<path d="M145.519 235.202H141.183V239.538H145.519V235.202Z" fill="black"/>
<path d="M154.191 235.202H149.855V239.538H154.191V235.202Z" fill="black"/>
<path d="M167.198 235.202H162.862V239.538H167.198V235.202Z" fill="black"/>
<path d="M175.87 235.202H171.534V239.538H175.87V235.202Z" fill="black"/>
<path d="M180.206 235.202H175.87V239.538H180.206V235.202Z" fill="black"/>
<path d="M184.542 235.202H180.206V239.538H184.542V235.202Z" fill="black"/>
<path d="M193.214 235.202H188.878V239.538H193.214V235.202Z" fill="black"/>
<path d="M88.6094 239.538H84.2735V243.874H88.6094V239.538Z" fill="black"/>
<path d="M97.2813 239.538H92.9454V243.874H97.2813V239.538Z" fill="black"/>
<path d="M101.617 239.538H97.2813V243.874H101.617V239.538Z" fill="black"/>
<path d="M105.953 239.538H101.617V243.874H105.953V239.538Z" fill="black"/>
<path d="M114.625 239.538H110.289V243.874H114.625V239.538Z" fill="black"/>
<path d="M149.855 239.538H145.519V243.874H149.855V239.538Z" fill="black"/>
<path d="M154.191 239.538H149.855V243.874H154.191V239.538Z" fill="black"/>
<path d="M158.526 239.538H154.191V243.874H158.526V239.538Z" fill="black"/>
<path d="M167.198 239.538H162.862V243.874H167.198V239.538Z" fill="black"/>
<path d="M175.87 239.538H171.534V243.874H175.87V239.538Z" fill="black"/>
<path d="M180.206 239.538H175.87V243.874H180.206V239.538Z" fill="black"/>
<path d="M184.542 239.538H180.206V243.874H184.542V239.538Z" fill="black"/>
<path d="M193.214 239.538H188.878V243.874H193.214V239.538Z" fill="black"/>
<path d="M88.6094 243.874H84.2735V248.21H88.6094V243.874Z" fill="black"/>
<path d="M114.625 243.874H110.289V248.21H114.625V243.874Z" fill="black"/>
<path d="M123.297 243.874H118.961V248.21H123.297V243.874Z" fill="black"/>
<path d="M136.305 243.874H131.969V248.21H136.305V243.874Z" fill="black"/>
<path d="M141.183 243.874H136.305V248.21H141.183V243.874Z" fill="black"/>
<path d="M158.526 243.874H154.191V248.21H158.526V243.874Z" fill="black"/>
<path d="M167.198 243.874H162.862V248.21H167.198V243.874Z" fill="black"/>
<path d="M193.214 243.874H188.878V248.21H193.214V243.874Z" fill="black"/>
<path d="M88.6094 248.21H84.2735V252.546H88.6094V248.21Z" fill="black"/>
<path d="M92.9454 248.21H88.6094V252.546H92.9454V248.21Z" fill="black"/>
<path d="M97.2813 248.21H92.9454V252.546H97.2813V248.21Z" fill="black"/>
<path d="M101.617 248.21H97.2813V252.546H101.617V248.21Z" fill="black"/>
<path d="M105.953 248.21H101.617V252.546H105.953V248.21Z" fill="black"/>
<path d="M110.289 248.21H105.953V252.546H110.289V248.21Z" fill="black"/>
<path d="M114.625 248.21H110.289V252.546H114.625V248.21Z" fill="black"/>
<path d="M123.297 248.21H118.961V252.546H123.297V248.21Z" fill="black"/>
<path d="M131.969 248.21H127.633V252.546H131.969V248.21Z" fill="black"/>
<path d="M141.183 248.21H136.305V252.546H141.183V248.21Z" fill="black"/>
<path d="M149.855 248.21H145.519V252.546H149.855V248.21Z" fill="black"/>
<path d="M158.526 248.21H154.191V252.546H158.526V248.21Z" fill="black"/>
<path d="M167.198 248.21H162.862V252.546H167.198V248.21Z" fill="black"/>
<path d="M171.534 248.21H167.198V252.546H171.534V248.21Z" fill="black"/>
<path d="M175.87 248.21H171.534V252.546H175.87V248.21Z" fill="black"/>
<path d="M180.206 248.21H175.87V252.546H180.206V248.21Z" fill="black"/>
<path d="M184.542 248.21H180.206V252.546H184.542V248.21Z" fill="black"/>
<path d="M188.878 248.21H184.542V252.546H188.878V248.21Z" fill="black"/>
<path d="M193.214 248.21H188.878V252.546H193.214V248.21Z" fill="black"/>
<path d="M127.633 252.546H123.297V256.882H127.633V252.546Z" fill="black"/>
<path d="M141.183 252.546H136.305V256.882H141.183V252.546Z" fill="black"/>
<path d="M154.191 252.546H149.855V256.882H154.191V252.546Z" fill="black"/>
<path d="M88.6094 256.882H84.2735V261.218H88.6094V256.882Z" fill="black"/>
<path d="M92.9454 256.882H88.6094V261.218H92.9454V256.882Z" fill="black"/>
<path d="M105.953 256.882H101.617V261.218H105.953V256.882Z" fill="black"/>
<path d="M110.289 256.882H105.953V261.218H110.289V256.882Z" fill="black"/>
<path d="M114.625 256.882H110.289V261.218H114.625V256.882Z" fill="black"/>
<path d="M136.305 256.882H131.969V261.218H136.305V256.882Z" fill="black"/>
<path d="M171.534 256.882H167.198V261.218H171.534V256.882Z" fill="black"/>
<path d="M180.206 256.882H175.87V261.218H180.206V256.882Z" fill="black"/>
<path d="M184.542 256.882H180.206V261.218H184.542V256.882Z" fill="black"/>
<path d="M188.878 256.882H184.542V261.218H188.878V256.882Z" fill="black"/>
<path d="M193.214 256.882H188.878V261.218H193.214V256.882Z" fill="black"/>
<path d="M88.6094 261.218H84.2735V265.554H88.6094V261.218Z" fill="black"/>
<path d="M97.2813 261.218H92.9454V265.554H97.2813V261.218Z" fill="black"/>
<path d="M101.617 261.218H97.2813V265.554H101.617V261.218Z" fill="black"/>
<path d="M110.289 261.218H105.953V265.554H110.289V261.218Z" fill="black"/>
<path d="M118.961 261.218H114.625V265.554H118.961V261.218Z" fill="black"/>
<path d="M127.633 261.218H123.297V265.554H127.633V261.218Z" fill="black"/>
<path d="M131.969 261.218H127.633V265.554H131.969V261.218Z" fill="black"/>
<path d="M141.183 261.218H136.305V265.554H141.183V261.218Z" fill="black"/>
<path d="M145.519 261.218H141.183V265.554H145.519V261.218Z" fill="black"/>
<path d="M149.855 261.218H145.519V265.554H149.855V261.218Z" fill="black"/>
<path d="M154.191 261.218H149.855V265.554H154.191V261.218Z" fill="black"/>
<path d="M158.526 261.218H154.191V265.554H158.526V261.218Z" fill="black"/>
<path d="M175.87 261.218H171.534V265.554H175.87V261.218Z" fill="black"/>
<path d="M180.206 261.218H175.87V265.554H180.206V261.218Z" fill="black"/>
<path d="M188.878 261.218H184.542V265.554H188.878V261.218Z" fill="black"/>
<path d="M92.9454 265.554H88.6094V269.89H92.9454V265.554Z" fill="black"/>
<path d="M105.953 265.554H101.617V269.89H105.953V265.554Z" fill="black"/>
<path d="M114.625 265.554H110.289V269.89H114.625V265.554Z" fill="black"/>
<path d="M123.297 265.554H118.961V269.89H123.297V265.554Z" fill="black"/>
<path d="M136.305 265.554H131.969V269.89H136.305V265.554Z" fill="black"/>
<path d="M141.183 265.554H136.305V269.89H141.183V265.554Z" fill="black"/>
<path d="M145.519 265.554H141.183V269.89H145.519V265.554Z" fill="black"/>
<path d="M154.191 265.554H149.855V269.89H154.191V265.554Z" fill="black"/>
<path d="M158.526 265.554H154.191V269.89H158.526V265.554Z" fill="black"/>
<path d="M162.862 265.554H158.526V269.89H162.862V265.554Z" fill="black"/>
<path d="M167.198 265.554H162.862V269.89H167.198V265.554Z" fill="black"/>
<path d="M171.534 265.554H167.198V269.89H171.534V265.554Z" fill="black"/>
<path d="M175.87 265.554H171.534V269.89H175.87V265.554Z" fill="black"/>
<path d="M180.206 265.554H175.87V269.89H180.206V265.554Z" fill="black"/>
<path d="M184.542 265.554H180.206V269.89H184.542V265.554Z" fill="black"/>
<path d="M88.6094 269.89H84.2735V274.225H88.6094V269.89Z" fill="black"/>
<path d="M101.617 269.89H97.2813V274.225H101.617V269.89Z" fill="black"/>
<path d="M105.953 269.89H101.617V274.225H105.953V269.89Z" fill="black"/>
<path d="M131.969 269.89H127.633V274.225H131.969V269.89Z" fill="black"/>
<path d="M136.305 269.89H131.969V274.225H136.305V269.89Z" fill="black"/>
<path d="M149.855 269.89H145.519V274.225H149.855V269.89Z" fill="black"/>
<path d="M158.526 269.89H154.191V274.225H158.526V269.89Z" fill="black"/>
<path d="M184.542 269.89H180.206V274.225H184.542V269.89Z" fill="black"/>
<path d="M188.878 269.89H184.542V274.225H188.878V269.89Z" fill="black"/>
<path d="M92.9454 274.225H88.6094V279.103H92.9454V274.225Z" fill="black"/>
<path d="M97.2813 274.225H92.9454V279.103H97.2813V274.225Z" fill="black"/>
<path d="M114.625 274.225H110.289V279.103H114.625V274.225Z" fill="black"/>
<path d="M118.961 274.225H114.625V279.103H118.961V274.225Z" fill="black"/>
<path d="M131.969 274.225H127.633V279.103H131.969V274.225Z" fill="black"/>
<path d="M141.183 274.225H136.305V279.103H141.183V274.225Z" fill="black"/>
<path d="M158.526 274.225H154.191V279.103H158.526V274.225Z" fill="black"/>
<path d="M162.862 274.225H158.526V279.103H162.862V274.225Z" fill="black"/>
<path d="M167.198 274.225H162.862V279.103H167.198V274.225Z" fill="black"/>
<path d="M180.206 274.225H175.87V279.103H180.206V274.225Z" fill="black"/>
<path d="M184.542 274.225H180.206V279.103H184.542V274.225Z" fill="black"/>
<path d="M188.878 274.225H184.542V279.103H188.878V274.225Z" fill="black"/>
<path d="M193.214 274.225H188.878V279.103H193.214V274.225Z" fill="black"/>
<path d="M88.6094 279.103H84.2735V283.439H88.6094V279.103Z" fill="black"/>
<path d="M92.9454 279.103H88.6094V283.439H92.9454V279.103Z" fill="black"/>
<path d="M101.617 279.103H97.2813V283.439H101.617V279.103Z" fill="black"/>
<path d="M110.289 279.103H105.953V283.439H110.289V279.103Z" fill="black"/>
<path d="M123.297 279.103H118.961V283.439H123.297V279.103Z" fill="black"/>
<path d="M127.633 279.103H123.297V283.439H127.633V279.103Z" fill="black"/>
<path d="M149.855 279.103H145.519V283.439H149.855V279.103Z" fill="black"/>
<path d="M154.191 279.103H149.855V283.439H154.191V279.103Z" fill="black"/>
<path d="M158.526 279.103H154.191V283.439H158.526V279.103Z" fill="black"/>
<path d="M162.862 279.103H158.526V283.439H162.862V279.103Z" fill="black"/>
<path d="M175.87 279.103H171.534V283.439H175.87V279.103Z" fill="black"/>
<path d="M188.878 279.103H184.542V283.439H188.878V279.103Z" fill="black"/>
<path d="M97.2813 283.439H92.9454V287.775H97.2813V283.439Z" fill="black"/>
<path d="M114.625 283.439H110.289V287.775H114.625V283.439Z" fill="black"/>
<path d="M118.961 283.439H114.625V287.775H118.961V283.439Z" fill="black"/>
<path d="M127.633 283.439H123.297V287.775H127.633V283.439Z" fill="black"/>
<path d="M131.969 283.439H127.633V287.775H131.969V283.439Z" fill="black"/>
<path d="M145.519 283.439H141.183V287.775H145.519V283.439Z" fill="black"/>
<path d="M149.855 283.439H145.519V287.775H149.855V283.439Z" fill="black"/>
<path d="M154.191 283.439H149.855V287.775H154.191V283.439Z" fill="black"/>
<path d="M158.526 283.439H154.191V287.775H158.526V283.439Z" fill="black"/>
<path d="M162.862 283.439H158.526V287.775H162.862V283.439Z" fill="black"/>
<path d="M167.198 283.439H162.862V287.775H167.198V283.439Z" fill="black"/>
<path d="M171.534 283.439H167.198V287.775H171.534V283.439Z" fill="black"/>
<path d="M175.87 283.439H171.534V287.775H175.87V283.439Z" fill="black"/>
<path d="M180.206 283.439H175.87V287.775H180.206V283.439Z" fill="black"/>
<path d="M184.542 283.439H180.206V287.775H184.542V283.439Z" fill="black"/>
<path d="M97.2813 287.775H92.9454V292.111H97.2813V287.775Z" fill="black"/>
<path d="M101.617 287.775H97.2813V292.111H101.617V287.775Z" fill="black"/>
<path d="M105.953 287.775H101.617V292.111H105.953V287.775Z" fill="black"/>
<path d="M118.961 287.775H114.625V292.111H118.961V287.775Z" fill="black"/>
<path d="M141.183 287.775H136.305V292.111H141.183V287.775Z" fill="black"/>
<path d="M149.855 287.775H145.519V292.111H149.855V287.775Z" fill="black"/>
<path d="M154.191 287.775H149.855V292.111H154.191V287.775Z" fill="black"/>
<path d="M158.526 287.775H154.191V292.111H158.526V287.775Z" fill="black"/>
<path d="M162.862 287.775H158.526V292.111H162.862V287.775Z" fill="black"/>
<path d="M171.534 287.775H167.198V292.111H171.534V287.775Z" fill="black"/>
<path d="M175.87 287.775H171.534V292.111H175.87V287.775Z" fill="black"/>
<path d="M184.542 287.775H180.206V292.111H184.542V287.775Z" fill="black"/>
<path d="M188.878 287.775H184.542V292.111H188.878V287.775Z" fill="black"/>
<path d="M88.6094 292.111H84.2735V296.447H88.6094V292.111Z" fill="black"/>
<path d="M92.9454 292.111H88.6094V296.447H92.9454V292.111Z" fill="black"/>
<path d="M101.617 292.111H97.2813V296.447H101.617V292.111Z" fill="black"/>
<path d="M110.289 292.111H105.953V296.447H110.289V292.111Z" fill="black"/>
<path d="M114.625 292.111H110.289V296.447H114.625V292.111Z" fill="black"/>
<path d="M118.961 292.111H114.625V296.447H118.961V292.111Z" fill="black"/>
<path d="M123.297 292.111H118.961V296.447H123.297V292.111Z" fill="black"/>
<path d="M127.633 292.111H123.297V296.447H127.633V292.111Z" fill="black"/>
<path d="M136.305 292.111H131.969V296.447H136.305V292.111Z" fill="black"/>
<path d="M158.526 292.111H154.191V296.447H158.526V292.111Z" fill="black"/>
<path d="M162.862 292.111H158.526V296.447H162.862V292.111Z" fill="black"/>
<path d="M167.198 292.111H162.862V296.447H167.198V292.111Z" fill="black"/>
<path d="M171.534 292.111H167.198V296.447H171.534V292.111Z" fill="black"/>
<path d="M175.87 292.111H171.534V296.447H175.87V292.111Z" fill="black"/>
<path d="M180.206 292.111H175.87V296.447H180.206V292.111Z" fill="black"/>
<path d="M184.542 292.111H180.206V296.447H184.542V292.111Z" fill="black"/>
<path d="M123.297 296.447H118.961V300.783H123.297V296.447Z" fill="black"/>
<path d="M131.969 296.447H127.633V300.783H131.969V296.447Z" fill="black"/>
<path d="M141.183 296.447H136.305V300.783H141.183V296.447Z" fill="black"/>
<path d="M149.855 296.447H145.519V300.783H149.855V296.447Z" fill="black"/>
<path d="M154.191 296.447H149.855V300.783H154.191V296.447Z" fill="black"/>
<path d="M158.526 296.447H154.191V300.783H158.526V296.447Z" fill="black"/>
<path d="M175.87 296.447H171.534V300.783H175.87V296.447Z" fill="black"/>
<path d="M88.6094 300.783H84.2735V305.119H88.6094V300.783Z" fill="black"/>
<path d="M92.9454 300.783H88.6094V305.119H92.9454V300.783Z" fill="black"/>
<path d="M97.2813 300.783H92.9454V305.119H97.2813V300.783Z" fill="black"/>
<path d="M101.617 300.783H97.2813V305.119H101.617V300.783Z" fill="black"/>
<path d="M105.953 300.783H101.617V305.119H105.953V300.783Z" fill="black"/>
<path d="M110.289 300.783H105.953V305.119H110.289V300.783Z" fill="black"/>
<path d="M114.625 300.783H110.289V305.119H114.625V300.783Z" fill="black"/>
<path d="M136.305 300.783H131.969V305.119H136.305V300.783Z" fill="black"/>
<path d="M141.183 300.783H136.305V305.119H141.183V300.783Z" fill="black"/>
<path d="M149.855 300.783H145.519V305.119H149.855V300.783Z" fill="black"/>
<path d="M158.526 300.783H154.191V305.119H158.526V300.783Z" fill="black"/>
<path d="M167.198 300.783H162.862V305.119H167.198V300.783Z" fill="black"/>
<path d="M175.87 300.783H171.534V305.119H175.87V300.783Z" fill="black"/>
<path d="M88.6094 305.119H84.2735V309.455H88.6094V305.119Z" fill="black"/>
<path d="M114.625 305.119H110.289V309.455H114.625V305.119Z" fill="black"/>
<path d="M123.297 305.119H118.961V309.455H123.297V305.119Z" fill="black"/>
<path d="M131.969 305.119H127.633V309.455H131.969V305.119Z" fill="black"/>
<path d="M136.305 305.119H131.969V309.455H136.305V305.119Z" fill="black"/>
<path d="M149.855 305.119H145.519V309.455H149.855V305.119Z" fill="black"/>
<path d="M158.526 305.119H154.191V309.455H158.526V305.119Z" fill="black"/>
<path d="M175.87 305.119H171.534V309.455H175.87V305.119Z" fill="black"/>
<path d="M180.206 305.119H175.87V309.455H180.206V305.119Z" fill="black"/>
<path d="M184.542 305.119H180.206V309.455H184.542V305.119Z" fill="black"/>
<path d="M193.214 305.119H188.878V309.455H193.214V305.119Z" fill="black"/>
<path d="M88.6094 309.455H84.2735V313.791H88.6094V309.455Z" fill="black"/>
<path d="M97.2813 309.455H92.9454V313.791H97.2813V309.455Z" fill="black"/>
<path d="M101.617 309.455H97.2813V313.791H101.617V309.455Z" fill="black"/>
<path d="M105.953 309.455H101.617V313.791H105.953V309.455Z" fill="black"/>
<path d="M114.625 309.455H110.289V313.791H114.625V309.455Z" fill="black"/>
<path d="M123.297 309.455H118.961V313.791H123.297V309.455Z" fill="black"/>
<path d="M141.183 309.455H136.305V313.791H141.183V309.455Z" fill="black"/>
<path d="M149.855 309.455H145.519V313.791H149.855V309.455Z" fill="black"/>
<path d="M158.526 309.455H154.191V313.791H158.526V309.455Z" fill="black"/>
<path d="M162.862 309.455H158.526V313.791H162.862V309.455Z" fill="black"/>
<path d="M167.198 309.455H162.862V313.791H167.198V309.455Z" fill="black"/>
<path d="M171.534 309.455H167.198V313.791H171.534V309.455Z" fill="black"/>
<path d="M175.87 309.455H171.534V313.791H175.87V309.455Z" fill="black"/>
<path d="M180.206 309.455H175.87V313.791H180.206V309.455Z" fill="black"/>
<path d="M184.542 309.455H180.206V313.791H184.542V309.455Z" fill="black"/>
<path d="M188.878 309.455H184.542V313.791H188.878V309.455Z" fill="black"/>
<path d="M193.214 309.455H188.878V313.791H193.214V309.455Z" fill="black"/>
<path d="M88.6094 313.791H84.2735V318.127H88.6094V313.791Z" fill="black"/>
<path d="M97.2813 313.791H92.9454V318.127H97.2813V313.791Z" fill="black"/>
<path d="M101.617 313.791H97.2813V318.127H101.617V313.791Z" fill="black"/>
<path d="M105.953 313.791H101.617V318.127H105.953V313.791Z" fill="black"/>
<path d="M114.625 313.791H110.289V318.127H114.625V313.791Z" fill="black"/>
<path d="M149.855 313.791H145.519V318.127H149.855V313.791Z" fill="black"/>
<path d="M154.191 313.791H149.855V318.127H154.191V313.791Z" fill="black"/>
<path d="M162.862 313.791H158.526V318.127H162.862V313.791Z" fill="black"/>
<path d="M167.198 313.791H162.862V318.127H167.198V313.791Z" fill="black"/>
<path d="M171.534 313.791H167.198V318.127H171.534V313.791Z" fill="black"/>
<path d="M184.542 313.791H180.206V318.127H184.542V313.791Z" fill="black"/>
<path d="M188.878 313.791H184.542V318.127H188.878V313.791Z" fill="black"/>
<path d="M193.214 313.791H188.878V318.127H193.214V313.791Z" fill="black"/>
<path d="M88.6094 318.127H84.2735V322.463H88.6094V318.127Z" fill="black"/>
<path d="M97.2813 318.127H92.9454V322.463H97.2813V318.127Z" fill="black"/>
<path d="M101.617 318.127H97.2813V322.463H101.617V318.127Z" fill="black"/>
<path d="M105.953 318.127H101.617V322.463H105.953V318.127Z" fill="black"/>
<path d="M114.625 318.127H110.289V322.463H114.625V318.127Z" fill="black"/>
<path d="M127.633 318.127H123.297V322.463H127.633V318.127Z" fill="black"/>
<path d="M131.969 318.127H127.633V322.463H131.969V318.127Z" fill="black"/>
<path d="M145.519 318.127H141.183V322.463H145.519V318.127Z" fill="black"/>
<path d="M149.855 318.127H145.519V322.463H149.855V318.127Z" fill="black"/>
<path d="M162.862 318.127H158.526V322.463H162.862V318.127Z" fill="black"/>
<path d="M167.198 318.127H162.862V322.463H167.198V318.127Z" fill="black"/>
<path d="M180.206 318.127H175.87V322.463H180.206V318.127Z" fill="black"/>
<path d="M188.878 318.127H184.542V322.463H188.878V318.127Z" fill="black"/>
<path d="M88.6094 322.463H84.2735V326.799H88.6094V322.463Z" fill="black"/>
<path d="M114.625 322.463H110.289V326.799H114.625V322.463Z" fill="black"/>
<path d="M123.297 322.463H118.961V326.799H123.297V322.463Z" fill="black"/>
<path d="M127.633 322.463H123.297V326.799H127.633V322.463Z" fill="black"/>
<path d="M141.183 322.463H136.305V326.799H141.183V322.463Z" fill="black"/>
<path d="M149.855 322.463H145.519V326.799H149.855V322.463Z" fill="black"/>
<path d="M154.191 322.463H149.855V326.799H154.191V322.463Z" fill="black"/>
<path d="M171.534 322.463H167.198V326.799H171.534V322.463Z" fill="black"/>
<path d="M175.87 322.463H171.534V326.799H175.87V322.463Z" fill="black"/>
<path d="M180.206 322.463H175.87V326.799H180.206V322.463Z" fill="black"/>
<path d="M184.542 322.463H180.206V326.799H184.542V322.463Z" fill="black"/>
<path d="M188.878 322.463H184.542V326.799H188.878V322.463Z" fill="black"/>
<path d="M88.6094 326.799H84.2735V331.135H88.6094V326.799Z" fill="black"/>
<path d="M92.9454 326.799H88.6094V331.135H92.9454V326.799Z" fill="black"/>
<path d="M97.2813 326.799H92.9454V331.135H97.2813V326.799Z" fill="black"/>
<path d="M101.617 326.799H97.2813V331.135H101.617V326.799Z" fill="black"/>
<path d="M105.953 326.799H101.617V331.135H105.953V326.799Z" fill="black"/>
<path d="M110.289 326.799H105.953V331.135H110.289V326.799Z" fill="black"/>
<path d="M114.625 326.799H110.289V331.135H114.625V326.799Z" fill="black"/>
<path d="M123.297 326.799H118.961V331.135H123.297V326.799Z" fill="black"/>
<path d="M127.633 326.799H123.297V331.135H127.633V326.799Z" fill="black"/>
<path d="M131.969 326.799H127.633V331.135H131.969V326.799Z" fill="black"/>
<path d="M136.305 326.799H131.969V331.135H136.305V326.799Z" fill="black"/>
<path d="M141.183 326.799H136.305V331.135H141.183V326.799Z" fill="black"/>
<path d="M145.519 326.799H141.183V331.135H145.519V326.799Z" fill="black"/>
<path d="M149.855 326.799H145.519V331.135H149.855V326.799Z" fill="black"/>
<path d="M154.191 326.799H149.855V331.135H154.191V326.799Z" fill="black"/>
<path d="M162.862 326.799H158.526V331.135H162.862V326.799Z" fill="black"/>
<path d="M167.198 326.799H162.862V331.135H167.198V326.799Z" fill="black"/>
<path d="M184.542 326.799H180.206V331.135H184.542V326.799Z" fill="black"/>
<path d="M188.878 326.799H184.542V331.135H188.878V326.799Z" fill="black"/>
<path d="M193.214 326.799H188.878V331.135H193.214V326.799Z" fill="black"/>
<path fill-rule="evenodd" clip-rule="evenodd" d="M264.03 6.29337H14C9.02942 6.29337 5 10.3228 5 15.2933V539.707C5 544.677 9.02944 548.707 14 548.707H264.03C269 548.707 273.03 544.677 273.03 539.707V15.2934C273.03 10.3228 269 6.29337 264.03 6.29337ZM14 0.293365C5.71573 0.293365 -1 7.00906 -1 15.2933V539.707C-1 547.991 5.71573 554.707 14 554.707H264.03C272.314 554.707 279.03 547.991 279.03 539.707V15.2934C279.03 7.00909 272.314 0.293365 264.03 0.293365H14Z" fill="black"/>
<path fill-rule="evenodd" clip-rule="evenodd" d="M222.314 192.507L222.314 250.965L218.314 250.965L218.314 196.507L163.856 196.507L163.856 192.507L222.314 192.507Z" fill="black"/>
<path fill-rule="evenodd" clip-rule="evenodd" d="M223.443 361.363L164.985 361.363L164.985 357.363L219.443 357.363L219.443 302.906L223.443 302.906L223.443 361.363Z" fill="black"/>
<path fill-rule="evenodd" clip-rule="evenodd" d="M54.5867 361.363L54.5867 302.906L58.5867 302.906L58.5867 357.363L113.044 357.363L113.044 361.363L54.5867 361.363Z" fill="black"/>
<path fill-rule="evenodd" clip-rule="evenodd" d="M54.5867 192.507H113.044V196.507H58.5867V250.965H54.5867V192.507Z" fill="black"/>
<path d="M317 273.935C315.343 273.935 314 275.279 314 276.935C314 278.592 315.343 279.935 317 279.935V273.935ZM389.129 279.057C390.3 277.885 390.3 275.986 389.129 274.814L370.037 255.722C368.865 254.551 366.966 254.551 365.794 255.722C364.623 256.894 364.623 258.793 365.794 259.965L382.765 276.935L365.794 293.906C364.623 295.078 364.623 296.977 365.794 298.149C366.966 299.32 368.865 299.32 370.037 298.149L389.129 279.057ZM317 279.935H387.007V273.935H317V279.935Z" fill="black"/>
</svg>
