<svg width="690" height="236" viewBox="0 0 690 236" fill="none" xmlns="http://www.w3.org/2000/svg">
<g clip-path="url(#clip0_111_58)">
<path d="M-2 178.5L28 222L56.4334 195L86.6501 233L116.363 219.5L146.58 203.5L175.79 219.5L205.503 95L235.719 222L266.944 228L295.146 231.5L325.363 152.5L355.076 123L385.293 97.5L415.006 38L444.719 177.5L474.936 213.5L504.145 104L534.865 117.5L564.075 175.5C564.075 175.5 581.877 208.412 593.284 229.5L619.472 198L647.171 191.5L676 214.5L692.5 177" stroke="#FF3D00" stroke-width="4" stroke-linejoin="round"/>
<path d="M-2.99268 98H14.6338L55.4264 184.052L86.1468 191.035L115.86 159.114L146.077 160.61L176.293 205L205.503 175.074L235.216 109.238L264.929 66.3449L297.16 144.151L325.363 149.638L355.58 130.685H384.285L416.013 134.176L444.719 4L472.921 23.4516L505.153 120.71L535.369 74.3251L565.082 49.8859L593.285 23.4516L622.998 87.5L652.711 80C652.711 80 666.83 90.9706 675.877 98C675.877 98 686.203 98 692.496 98" stroke="#FFE81D" stroke-width="4" stroke-linejoin="round"/>
</g>
<defs>
<clipPath id="clip0_111_58">
<rect width="690" height="236" fill="white"/>
</clipPath>
</defs>
</svg>
