<svg version="1.2" xmlns="http://www.w3.org/2000/svg" viewBox="0 0 955 851" width="955" height="851">
	<style> .s0 {fill: white} </style>
	<path class="s0" d="m350.1 735.5q0 18.7-3.6 36q-0.3 1.8-0.7 3.5q-0.8 3.5-1.8 7q-0.6 2-1.2 4c-0.4 1.2-0.7 2.5-1.1 3.7h-0.1c0 0.1 0 0.2-0.1 0.3q-0.6 2-1.3 3.9q-0.7 1.8-1.3 3.5c-0.6 1.4-1.2 2.9-1.8 4.3q-0.8 2-1.7 4c-0.1 0.1-0.1 0.1-0.1 0.2c-0.6 1.3-1.2 2.6-1.9 3.9q-0.5 1.2-1.1 2.2q-0.7 1.6-1.5 3q-0.7 1.4-1.5 2.8q-0.8 1.4-1.6 2.8c-0.5 0.8-0.9 1.6-1.4 2.4q-1.1 1.8-2.2 3.5q-7.9 12.4-18.2 24h-143.3c15.6-0.9 30.5-4.5 44.7-10.7q2-0.8 3.9-1.7q3-1.4 5.9-3c2-1.1 4-2.2 5.9-3.3c0 0 0.1-0.1 0.1-0.1c1.9-1.2 3.8-2.4 5.6-3.6q2.4-1.6 4.7-3.2c0.4-0.4 0.9-0.7 1.3-1.1q2.3-1.7 4.5-3.6q2.4-2 4.8-4.3c3-2.9 6-6 8.6-9.3c1.4-1.6 2.6-3.2 3.9-4.9c0.6-0.9 1.2-1.7 1.7-2.6c0.7-0.9 1.3-1.9 1.9-2.8c0.1-0.1 0.2-0.2 0.2-0.3q1-1.5 1.9-3.1q0.9-1.6 1.8-3.2q1-1.7 1.8-3.4q1.5-2.9 2.7-5.7c2.2-4.9 3.9-9.9 5.3-14.9q3.9-14 3.9-28.8q0-11-2.5-22c-0.5-2.4-1.1-4.8-1.9-7.3c-3.7-12.4-9.9-24.6-18.4-36.8q-2-2.8-4.1-5.6q-2.1-2.9-4.6-5.8q0 0 0 0q-3.6-4.4-7.5-9q0 0 0 0c-1.8-2-3.7-4.1-5.6-6.1q-5.8-6.2-12.3-12.7q-1.6-1.7-3.3-3.3q-5.1-4.9-10.7-10q-7.3-6.9-15.6-13.9q-2-1.8-4.1-3.6q-5.2-4.4-10.8-9q-2.1-1.7-4.2-3.5c-10-8.1-20.6-16.4-32-25q-2.6-2-5.2-3.9q0 0 0-0.1c-3.4-2.5-6.7-5.1-10-7.5q-5.9-4.6-11.5-9c-2.4-1.9-4.7-3.7-7-5.5c-1.4-1.2-2.8-2.3-4.3-3.5c-2.8-2.3-5.6-4.5-8.2-6.7c-17.4-14.1-31.3-26.4-41.6-36.7c-2.5-2.4-4.7-4.7-6.6-6.9q-2-2.1-3.8-4.2c-0.7-0.7-1.3-1.3-1.8-2q-2.5-3-4.4-5.6c-23.7-31.6-31.9-52.9-34.7-89.6c-0.4-4.9-0.3-5.8-0.4-10.6c0-1.6 0-3.3 0-4.9q0-3.6 0.2-7.1q0.3-5.9 1.1-11.8c0-0.8 0.2-1.6 0.3-2.5q0.8-5.7 2.1-11.3c2.2-10 5.5-19.7 9.7-29.3q12.8-28.4 36.1-49.4c1.3-1.1 2.6-2.3 3.9-3.4q4.1-3.4 8.4-6.6c1.4-1.1 2.9-2.1 4.4-3.1c2.9-2.1 6-4 9-5.9c3.1-1.8 6.2-3.5 9.3-5.2q28.5-14.7 61.7-18.2q17.7-1.8 34.9-0.3q7.1 0.6 14.2 1.8q0 0 0 0c4 0.7 8 1.5 12 2.5c2.5 0.7 4.9 1.3 7.4 2q11.2 3.3 22.1 8.1q13.6 6 28.1 15.7q2.9 1.9 5.8 4q1.4 1.1 2.9 2.2c2 1.4 3.9 2.9 5.9 4.4c1 0.8 2 1.6 3 2.4q24 19.2 50.1 48v0.1l-50 46.9q-5-5.3-9.8-10.3q0 0 0 0c-3.3-3.3-6.4-6.4-9.5-9.4q-3-3-6-5.8q-26.4-24.5-45.7-33.5q-28.2-13-59.5-9.8q-10.5 1.1-19.9 3.8c-3.8 1.1-7.4 2.4-10.9 3.8q-10.9 4.6-20 11.7q-5 4-9.6 8.8c-1 1.1-2 2.2-3 3.4q-1.4 1.6-2.7 3.4c-1.1 1.5-2.2 2.9-3.2 4.4c-3 4.4-5.5 8.9-7.5 13.7q-0.9 1.9-1.6 3.9q-1.4 3.7-2.3 7.6c-0.2 0.7-0.4 1.5-0.5 2.3c-2 8.8-2.5 15.7-1.7 25.4q0.2 2.7 0.6 5.4c0.4 3.6-0.6-2.5-0.1 1v0.1c0.4 3.5 1.7 9.2 2.7 12.7q2.2 7.9 5.6 15.7q1.7 3.8 3.9 7.7q3 5.3 6.9 10.9q1 1.4 2 2.8c1.4 1.8 2.8 3.7 4.4 5.6q0 0 0 0c1.6 1.9 3.1 3.8 4.9 5.7q5.1 5.9 11.1 11.9c8.8 8.5 37.7 30.8 86.6 67q15.2 11.2 28.7 22c7.2 5.7 14.1 11.4 20.6 16.9c4.9 4.2 9.5 8.3 14 12.4c6 5.4 11.6 10.8 16.9 16c1.9 1.9 3.7 3.8 5.6 5.7q10.8 11.3 19.5 22q2.6 3.3 5.1 6.6c0.8 1.1 1.7 2.2 2.4 3.2c2.3 3.2 4.5 6.4 6.6 9.6q2 3 3.9 6.2q7.5 12.5 13.1 25.1c1.2 2.7 2.3 5.3 3.3 7.9c1 2.6 2 5.2 2.9 7.8c0.5 1.3 0.9 2.7 1.3 4q1.8 5.9 3.3 11.8c3 12.5 4.5 25.2 4.5 37.8z" />
	<path class="s0" d="m824.3 850.5h-693.8v-60.8h693.8z" />
	<path class="s0" d="m477.4 280.1l34.5-34.5v137.1l-34.5 34.5l-34.5-34.5v-137.1z" />
	<path class="s0" d="m511.9 422.9v140.6l-34.5-34.5l-34.5 34.5v-140.6l34.5 34.5z" />
	<path class="s0" d="m477.4 569.2l34.5 34.5v143h-69v-143z" />
	<path class="s0" d="m513.2 493.2l83 83l-35.8 35.9l-48.5-48.6l-34.5-34.5l-83 83.1l-35.8-35.9l82.9-83l-82.9-83l35.8-35.8l83 83l34.5-34.5l48.5-48.5l35.8 35.8z" />
	<path class="s0" d="m597.4 119.9l-98.3 98.3l-21.7 21.7l-21.7-21.7l-98.3-98.3l35.8-35.8l48.3-48.3l35.9-35.9l35.8 35.9l48.4 48.3zm-71.7 0l-48.3-48.4l-48.4 48.4l48.4 48.2z" />
	<path class="s0" d="m609.2 697.7q1.4-5.9 3.3-11.8c0.4-1.3 0.8-2.7 1.3-4c0.8-2.6 1.8-5.2 2.8-7.8c1.1-2.6 2.1-5.2 3.3-7.9q5.6-12.6 13.2-25.1q1.9-3.2 3.9-6.2c2-3.2 4.2-6.4 6.5-9.6c0.8-1 1.6-2.1 2.4-3.2q2.5-3.3 5.1-6.6q8.8-10.7 19.6-22c1.9-1.9 3.7-3.8 5.6-5.7c5.3-5.2 10.9-10.6 16.9-16c4.4-4.1 9.1-8.2 13.9-12.4c6.6-5.5 13.4-11.2 20.6-16.9q13.6-10.8 28.8-22c48.9-36.2 77.8-58.5 86.6-67q6-6 11.1-11.9c1.7-1.9 3.3-3.8 4.8-5.7q0 0 0 0c1.6-1.9 3-3.8 4.4-5.6q1.1-1.4 2.1-2.8q3.9-5.6 6.9-10.9q2.2-3.9 3.9-7.7q3.4-7.8 5.5-15.7c1-3.5 2.3-9.2 2.8-12.7v-0.1c0.5-3.5-0.6 2.6-0.1-1q0.4-2.7 0.6-5.4c0.7-9.7 0.2-16.6-1.7-25.4c-0.1-0.8-0.3-1.6-0.6-2.3q-0.9-3.9-2.3-7.6q-0.7-2-1.5-3.9c-2-4.8-4.5-9.3-7.5-13.7c-1-1.5-2.1-2.9-3.2-4.4q-1.4-1.8-2.8-3.4c-1-1.2-2-2.3-3-3.4q-4.5-4.8-9.6-8.8q-9-7.1-20-11.7c-3.4-1.4-7.1-2.7-10.8-3.8q-9.4-2.7-20-3.8q-31.2-3.2-59.4 9.8q-19.4 9-45.7 33.5q-3 2.8-6.1 5.8c-3 3-6.2 6.1-9.4 9.4q0 0 0 0q-4.8 5-9.8 10.3h-0.1l-50-46.9v-0.1q26.2-28.8 50.1-48c1-0.8 2-1.6 3-2.4c2-1.5 4-3 5.9-4.4q1.5-1.1 3-2.2q2.9-2.1 5.8-4q14.4-9.7 28-15.7q10.9-4.8 22.1-8.1c2.5-0.7 5-1.3 7.5-2c3.9-1 8-1.8 11.9-2.5q0 0 0.1 0q7-1.2 14.2-1.8q17.1-1.5 34.8 0.3q33.3 3.5 61.7 18.2c3.2 1.7 6.3 3.4 9.3 5.2c3.1 1.9 6.1 3.8 9.1 5.9c1.5 1 3 2 4.4 3.1q4.3 3.2 8.3 6.6c1.3 1.1 2.7 2.3 3.9 3.4q23.3 21 36.1 49.4c4.3 9.6 7.6 19.3 9.8 29.3q1.2 5.6 2 11.3c0.2 0.9 0.3 1.7 0.4 2.5q0.8 5.9 1.1 11.8q0.2 3.5 0.2 7.1c0 1.6 0 3.3 0 4.9c-0.1 4.8 0 5.7-0.4 10.6c-2.9 36.7-11.1 58-34.8 89.6q-1.8 2.6-4.4 5.6c-0.5 0.7-1.1 1.3-1.7 2q-1.8 2.1-3.8 4.2c-2 2.2-4.2 4.5-6.6 6.9c-10.4 10.3-24.2 22.6-41.6 36.7c-2.7 2.2-5.4 4.4-8.2 6.7h-0.1c-1.4 1.2-2.8 2.3-4.3 3.5c-2.3 1.8-4.6 3.6-7 5.5q-5.5 4.4-11.5 9c-3.2 2.4-6.5 5-9.9 7.5q0 0.1-0.1 0.1q-2.5 1.9-5.1 3.9c-11.4 8.6-22.1 16.9-32 25q-2.2 1.8-4.3 3.5q-5.5 4.6-10.7 9q-2.2 1.8-4.2 3.6q-8.2 7-15.6 13.9q-5.5 5.1-10.6 10q-1.7 1.6-3.3 3.3q-6.6 6.5-12.4 12.7c-1.9 2-3.7 4.1-5.5 6.1q0 0 0 0q-4 4.6-7.6 9q0 0 0 0q-2.4 2.9-4.5 5.8q-2.1 2.8-4.1 5.6c-8.6 12.2-14.7 24.4-18.5 36.8c-0.7 2.5-1.3 4.9-1.9 7.3q-2.4 11-2.4 22q0 14.8 3.8 28.8c1.5 5 3.2 10 5.4 14.9q1.2 2.8 2.6 5.7q0.9 1.7 1.9 3.4q0.8 1.6 1.8 3.2q0.9 1.6 1.9 3.1c0 0.1 0.1 0.2 0.1 0.3c0.6 0.9 1.2 1.9 1.9 2.8c0.6 0.9 1.2 1.7 1.8 2.6c1.2 1.7 2.5 3.3 3.9 4.9c2.6 3.3 5.5 6.4 8.6 9.3q2.3 2.3 4.8 4.3q2.1 1.9 4.5 3.6c0.4 0.4 0.8 0.7 1.3 1.1q2.2 1.6 4.6 3.2c1.8 1.2 3.7 2.4 5.6 3.6c0.1 0 0.1 0.1 0.2 0.1c1.9 1.1 3.8 2.2 5.9 3.3q2.9 1.6 5.9 3q1.9 0.9 3.8 1.7c14.3 6.2 29.1 9.8 44.7 10.7h-143.3q-10.2-11.6-18.1-24q-1.1-1.7-2.2-3.5c-0.5-0.8-1-1.6-1.4-2.4q-0.8-1.4-1.6-2.8q-0.8-1.4-1.5-2.8q-0.8-1.4-1.6-3q-0.5-1-1.1-2.2c-0.6-1.3-1.2-2.6-1.8-3.9c-0.1-0.1-0.1-0.1-0.1-0.2q-0.9-2-1.8-4c-0.6-1.4-1.2-2.9-1.7-4.3q-0.7-1.7-1.3-3.5q-0.7-1.9-1.4-3.9c0-0.1-0.1-0.2-0.1-0.3c-0.4-1.2-0.8-2.5-1.1-3.7q-0.7-2-1.2-4q-1-3.5-1.8-7q-0.4-1.7-0.8-3.5q-3.6-17.3-3.6-36c0-12.6 1.5-25.3 4.6-37.8z" />
</svg>